<svg width="600" height="281" viewBox="46 87 600 281" fill="none" xmlns="http://www.w3.org/2000/svg">
<path d="M632 87H60C52.268 87 46 90.6694 46 95.1958V359.804C46 364.331 52.268 368 60 368H632C639.732 368 646 364.331 646 359.804V95.1958C646 90.6694 639.732 87 632 87Z" fill="#1A1917"/>
<path opacity="0.45" d="M164 219C231 99 316 99 374 219C403 279 438.75 309 475.625 309" stroke="#5B9BD5" stroke-width="2.5" stroke-linecap="round"/>
<path opacity="0.55" d="M148 219C215 99 300 99 358 219C387 279 422.75 309 458.375 309" stroke="#4A8BC4" stroke-width="2.5" stroke-linecap="round"/>
<path opacity="0.65" d="M132 219C199 99 284 99 342 219C371 279 406.75 309 442.375 309" stroke="#3A7AB3" stroke-width="3" stroke-linecap="round"/>
<path opacity="0.75" d="M116 219C183 99 268 99 326 219C355 279 390.75 309 426.375 309" stroke="#2A68A0" stroke-width="3.5" stroke-linecap="round"/>
<path opacity="0.9" d="M100 219C167 99 252 99 310 219C339 279 374.75 309 410.375 309" stroke="#185FA5" stroke-width="4" stroke-linecap="round"/>
<path d="M100 255L577 255" stroke="#0F6E56" stroke-width="3.5" stroke-linecap="round"/>
<path d="M100 255L577 255" stroke="#9FE1CB" stroke-width="1.5" stroke-linecap="round"/>
<path d="M572 249L586 255L572 261V249Z" fill="#9FE1CB"/>
<path d="M100 259.5C102.485 259.5 104.5 257.485 104.5 255C104.5 252.515 102.485 250.5 100 250.5C97.5147 250.5 95.5 252.515 95.5 255C95.5 257.485 97.5147 259.5 100 259.5Z" fill="#9FE1CB"/>
<path opacity="0.55" d="M476 309C510.366 309 545.78 279 577 219" stroke="#5B9BD5" stroke-width="2.5" stroke-linecap="round"/>
<path opacity="0.65" d="M458.375 309C494 309 529.5 279 558 219" stroke="#4A8BC4" stroke-width="2.5" stroke-linecap="round"/>
<path opacity="0.75" d="M442.375 309C478 309 513.5 279 542 219" stroke="#3A7AB3" stroke-width="3" stroke-linecap="round"/>
<path opacity="0.85" d="M426.375 309C462 309 497.5 279 526 219" stroke="#2A68A0" stroke-width="3.5" stroke-linecap="round"/>
<path opacity="0.9" d="M410.375 309C446 309 481.5 279 510 219" stroke="#185FA5" stroke-width="4" stroke-linecap="round"/>
<path d="M138.189 265.12V286.56H155.389V291H132.869V265.12H138.189ZM174.519 291.52C171.079 291.52 168.132 290.987 165.679 289.92C163.252 288.827 161.386 287.28 160.079 285.28C158.799 283.28 158.159 280.88 158.159 278.08C158.159 275.253 158.799 272.84 160.079 270.84C161.386 268.84 163.252 267.307 165.679 266.24C168.132 265.147 171.079 264.6 174.519 264.6C177.986 264.6 180.932 265.147 183.359 266.24C185.786 267.307 187.639 268.84 188.919 270.84C190.226 272.84 190.879 275.253 190.879 278.08C190.879 280.88 190.226 283.28 188.919 285.28C187.639 287.28 185.786 288.827 183.359 289.92C180.932 290.987 177.986 291.52 174.519 291.52ZM174.519 286.92C176.652 286.92 178.519 286.6 180.119 285.96C181.746 285.32 183.012 284.347 183.919 283.04C184.852 281.733 185.319 280.08 185.319 278.08C185.319 276.08 184.852 274.427 183.919 273.12C183.012 271.813 181.746 270.84 180.119 270.2C178.519 269.533 176.652 269.2 174.519 269.2C172.412 269.2 170.532 269.533 168.879 270.2C167.226 270.84 165.932 271.813 164.999 273.12C164.066 274.427 163.599 276.08 163.599 278.08C163.599 280.08 164.066 281.733 164.999 283.04C165.932 284.347 167.226 285.32 168.879 285.96C170.532 286.6 172.412 286.92 174.519 286.92ZM203.15 291L192.23 265.12H198.11L207.35 288.04L205.63 288.08L214.43 265.12H220.55L229.35 288.08L227.63 288.04L236.87 265.12H242.63L231.83 291H225.31L216.67 268.56H218.35L209.67 291H203.15ZM251.822 280.2V286.56H271.782V291H246.502V265.12H271.742V269.56H251.822V276H268.142V280.2H251.822ZM277.244 291V265.12H294.804C296.804 265.12 298.537 265.4 300.004 265.96C301.497 266.493 302.657 267.347 303.484 268.52C304.311 269.667 304.724 271.147 304.724 272.96C304.724 274.187 304.511 275.227 304.084 276.08C303.657 276.933 303.057 277.627 302.284 278.16C301.537 278.693 300.671 279.107 299.684 279.4C298.697 279.667 297.644 279.84 296.524 279.92L295.964 279.6C297.831 279.627 299.364 279.787 300.564 280.08C301.764 280.347 302.657 280.853 303.244 281.6C303.857 282.32 304.164 283.4 304.164 284.84V291H298.844V285.2C298.844 284.213 298.671 283.453 298.324 282.92C297.977 282.36 297.351 281.973 296.444 281.76C295.564 281.547 294.284 281.44 292.604 281.44H282.564V291H277.244ZM282.564 277.28H294.804C296.297 277.28 297.431 276.92 298.204 276.2C299.004 275.48 299.404 274.507 299.404 273.28C299.404 272.107 299.004 271.213 298.204 270.6C297.431 269.987 296.297 269.68 294.804 269.68H282.564V277.28Z" fill="#F1EFE8"/>
<path d="M245.895 299.2H252.951V300.964H250.347V309H248.499V300.964H245.895V299.2ZM254.859 299.2H261.047V300.964H256.707V303.204H260.879V304.968H256.707V307.236H261.215V309H254.859V299.2ZM266.595 307.516C266.95 307.516 267.239 307.465 267.463 307.362C267.697 307.25 267.874 307.105 267.995 306.928C268.126 306.741 268.215 306.531 268.261 306.298C268.308 306.055 268.331 305.808 268.331 305.556V305.304H270.179V305.556C270.179 306.723 269.871 307.623 269.255 308.258C268.649 308.883 267.762 309.196 266.595 309.196C265.475 309.196 264.589 308.855 263.935 308.174C263.282 307.493 262.955 306.499 262.955 305.192V303.008C262.955 302.383 263.039 301.823 263.207 301.328C263.375 300.824 263.618 300.404 263.935 300.068C264.253 299.723 264.635 299.461 265.083 299.284C265.531 299.097 266.035 299.004 266.595 299.004C267.174 299.004 267.687 299.088 268.135 299.256C268.583 299.424 268.957 299.667 269.255 299.984C269.563 300.301 269.792 300.684 269.941 301.132C270.1 301.58 270.179 302.084 270.179 302.644V302.896H268.331V302.644C268.331 302.411 268.303 302.177 268.247 301.944C268.191 301.711 268.098 301.501 267.967 301.314C267.837 301.127 267.659 300.978 267.435 300.866C267.211 300.745 266.931 300.684 266.595 300.684C266.287 300.684 266.021 300.745 265.797 300.866C265.573 300.978 265.387 301.137 265.237 301.342C265.088 301.538 264.976 301.771 264.901 302.042C264.836 302.303 264.803 302.579 264.803 302.868V305.332C264.803 305.649 264.836 305.943 264.901 306.214C264.967 306.475 265.069 306.704 265.209 306.9C265.349 307.096 265.531 307.25 265.755 307.362C265.989 307.465 266.269 307.516 266.595 307.516ZM271.709 299.2H273.557V303.204H276.721V299.2H278.569V309H276.721V304.968H273.557V309H271.709V299.2ZM285.042 308.076H285.294V299.2H287.142V309H283.53L282.382 300.124H282.13V309H280.282V299.2H283.894L285.042 308.076ZM288.672 303.008C288.672 301.739 288.989 300.754 289.624 300.054C290.268 299.354 291.155 299.004 292.284 299.004C293.413 299.004 294.295 299.354 294.93 300.054C295.574 300.754 295.896 301.739 295.896 303.008V305.192C295.896 306.499 295.574 307.493 294.93 308.174C294.295 308.855 293.413 309.196 292.284 309.196C291.155 309.196 290.268 308.855 289.624 308.174C288.989 307.493 288.672 306.499 288.672 305.192V303.008ZM292.284 307.516C292.62 307.516 292.9 307.465 293.124 307.362C293.348 307.25 293.53 307.096 293.67 306.9C293.81 306.704 293.908 306.471 293.964 306.2C294.02 305.929 294.048 305.631 294.048 305.304V302.896C294.048 302.588 294.015 302.299 293.95 302.028C293.885 301.757 293.782 301.524 293.642 301.328C293.502 301.132 293.32 300.978 293.096 300.866C292.872 300.745 292.601 300.684 292.284 300.684C291.967 300.684 291.696 300.745 291.472 300.866C291.248 300.978 291.066 301.132 290.926 301.328C290.786 301.524 290.683 301.757 290.618 302.028C290.553 302.299 290.52 302.588 290.52 302.896V305.304C290.52 305.631 290.548 305.929 290.604 306.2C290.66 306.471 290.758 306.704 290.898 306.9C291.038 307.096 291.22 307.25 291.444 307.362C291.668 307.465 291.948 307.516 292.284 307.516ZM297.72 299.2H299.568V307.236H304.02V309H297.72V299.2ZM305.817 303.008C305.817 301.739 306.134 300.754 306.769 300.054C307.413 299.354 308.299 299.004 309.429 299.004C310.558 299.004 311.44 299.354 312.075 300.054C312.719 300.754 313.041 301.739 313.041 303.008V305.192C313.041 306.499 312.719 307.493 312.075 308.174C311.44 308.855 310.558 309.196 309.429 309.196C308.299 309.196 307.413 308.855 306.769 308.174C306.134 307.493 305.817 306.499 305.817 305.192V303.008ZM309.429 307.516C309.765 307.516 310.045 307.465 310.269 307.362C310.493 307.25 310.675 307.096 310.815 306.9C310.955 306.704 311.053 306.471 311.109 306.2C311.165 305.929 311.193 305.631 311.193 305.304V302.896C311.193 302.588 311.16 302.299 311.095 302.028C311.029 301.757 310.927 301.524 310.787 301.328C310.647 301.132 310.465 300.978 310.241 300.866C310.017 300.745 309.746 300.684 309.429 300.684C309.111 300.684 308.841 300.745 308.617 300.866C308.393 300.978 308.211 301.132 308.071 301.328C307.931 301.524 307.828 301.757 307.763 302.028C307.697 302.299 307.665 302.588 307.665 302.896V305.304C307.665 305.631 307.693 305.929 307.749 306.2C307.805 306.471 307.903 306.704 308.043 306.9C308.183 307.096 308.365 307.25 308.589 307.362C308.813 307.465 309.093 307.516 309.429 307.516ZM317.357 304.044H321.557V309H319.877V307.908H319.625C319.513 308.272 319.298 308.58 318.981 308.832C318.663 309.075 318.187 309.196 317.553 309.196C317.105 309.196 316.685 309.112 316.293 308.944C315.901 308.776 315.56 308.529 315.271 308.202C314.981 307.866 314.753 307.455 314.585 306.97C314.417 306.475 314.333 305.901 314.333 305.248V302.952C314.333 302.317 314.421 301.757 314.599 301.272C314.785 300.777 315.037 300.362 315.355 300.026C315.681 299.69 316.069 299.438 316.517 299.27C316.965 299.093 317.459 299.004 318.001 299.004C318.561 299.004 319.06 299.097 319.499 299.284C319.937 299.461 320.311 299.713 320.619 300.04C320.927 300.357 321.16 300.735 321.319 301.174C321.477 301.603 321.557 302.065 321.557 302.56V302.728H319.709V302.56C319.709 301.972 319.555 301.529 319.247 301.23C318.948 300.922 318.523 300.768 317.973 300.768C317.45 300.768 317.021 300.945 316.685 301.3C316.349 301.645 316.181 302.243 316.181 303.092V305.164C316.181 306.676 316.797 307.432 318.029 307.432C318.579 307.432 318.995 307.287 319.275 306.998C319.564 306.699 319.709 306.303 319.709 305.808H317.357V304.044ZM325.649 305.556H325.229L322.415 299.2H324.431L326.447 303.876H326.699L328.715 299.2H330.731L327.917 305.556H327.497V309H325.649V305.556Z" fill="#9FE1CB"/>
</svg>
